<?xml version="1.0" encoding="utf-8"?>
<!-- Generator: Adobe Illustrator 24.0.3, SVG Export Plug-In . SVG Version: 6.00 Build 0)  -->
<svg version="1.1" id="Layer_1" xmlns="http://www.w3.org/2000/svg" xmlns:xlink="http://www.w3.org/1999/xlink" x="0px" y="0px"
	 viewBox="0 0 87.87 87.87" style="enable-background:new 0 0 87.87 87.87;" xml:space="preserve">
<style type="text/css">
	.st0{fill:none;stroke:#000000;stroke-width:4;stroke-miterlimit:10;}
</style>
<path class="st0" d="M43.94,16.54c-10.94,0-19.84,8.9-19.84,19.84c0,13.58,17.76,33.51,18.51,34.35c0.71,0.79,1.95,0.79,2.66,0
	c0.76-0.84,18.51-20.78,18.51-34.35C63.78,25.44,54.88,16.54,43.94,16.54z M43.94,46.37c-5.5,0-9.98-4.48-9.98-9.98
	s4.48-9.98,9.98-9.98s9.98,4.48,9.98,9.98S49.44,46.37,43.94,46.37z"/>
<g>
	<path d="M43.94,4.42c21.79,0,39.52,17.73,39.52,39.52S65.73,83.46,43.94,83.46S4.42,65.73,4.42,43.94S22.15,4.42,43.94,4.42
		 M43.94,1.42c-23.48,0-42.52,19.04-42.52,42.52c0,23.48,19.04,42.52,42.52,42.52c23.48,0,42.52-19.04,42.52-42.52
		C86.46,20.45,67.42,1.42,43.94,1.42L43.94,1.42z"/>
</g>
</svg>
