<?xml version="1.0" encoding="utf-8"?>
<!-- Generator: Adobe Illustrator 24.0.3, SVG Export Plug-In . SVG Version: 6.00 Build 0)  -->
<svg version="1.1" id="Layer_1" xmlns="http://www.w3.org/2000/svg" xmlns:xlink="http://www.w3.org/1999/xlink" x="0px" y="0px"
	 viewBox="0 0 87.87 87.87" style="enable-background:new 0 0 87.87 87.87;" xml:space="preserve">
<style type="text/css">
	.st0{stroke:#000000;stroke-width:0.6;stroke-miterlimit:10;}
</style>
<path class="st0" d="M69.4,28.96c0-2.46-2.01-4.48-4.49-4.47L22.9,24.55c-2.47,0-4.48,2.02-4.47,4.49l0.04,29.87
	c0,2.46,2.01,4.48,4.49,4.47l42.02-0.06c2.46,0,4.48-2.01,4.47-4.49L69.4,28.96z M21.41,29.63l14.41,14.24L21.45,58.28L21.41,29.63z
	 M44.03,47.8l-20.5-20.26l40.77-0.06L44.03,47.8z M37.94,45.97l5.05,4.99c0.58,0.58,1.53,0.57,2.11-0.01l4.91-4.93l14.34,14.3
	l-40.78,0.07L37.94,45.97z M52.12,43.92l14.3-14.34l0.04,28.63L52.12,43.92z"/>
<g>
	<path d="M43.94,4.42c21.79,0,39.52,17.73,39.52,39.52S65.73,83.46,43.94,83.46S4.42,65.73,4.42,43.94S22.15,4.42,43.94,4.42
		 M43.94,1.42c-23.48,0-42.52,19.04-42.52,42.52s19.04,42.52,42.52,42.52s42.52-19.04,42.52-42.52S67.42,1.42,43.94,1.42L43.94,1.42
		z"/>
</g>
</svg>
