<?xml version="1.0" encoding="utf-8"?>
<!-- Generator: Adobe Illustrator 24.0.3, SVG Export Plug-In . SVG Version: 6.00 Build 0)  -->
<svg version="1.1" id="Layer_1" xmlns="http://www.w3.org/2000/svg" xmlns:xlink="http://www.w3.org/1999/xlink" x="0px" y="0px"
	 viewBox="0 0 87.87 87.87" style="enable-background:new 0 0 87.87 87.87;" xml:space="preserve">
<style type="text/css">
	.st0{stroke:#000000;stroke-width:1.5;stroke-miterlimit:10;}
</style>
<path class="st0" d="M30.47,51.45c4.49,5.36,9.9,9.57,16.07,12.55c2.35,1.11,5.49,2.42,8.99,2.64c0.22,0.01,0.42,0.02,0.64,0.02
	c2.35,0,4.23-0.82,5.76-2.49c0.01-0.01,0.03-0.03,0.04-0.05c0.55-0.66,1.17-1.26,1.82-1.89c0.44-0.43,0.89-0.87,1.33-1.32
	c2-2.1,2-4.75-0.03-6.78l-5.67-5.66c-0.96-1-2.11-1.52-3.32-1.52c-1.21,0-2.36,0.53-3.35,1.52l-3.37,3.38
	c-0.31-0.18-0.63-0.34-0.93-0.49c-0.38-0.19-0.73-0.37-1.04-0.56c-3.08-1.95-5.87-4.49-8.54-7.75c-1.35-1.7-2.26-3.14-2.89-4.6
	c0.88-0.8,1.71-1.64,2.51-2.46c0.28-0.29,0.57-0.59,0.87-0.88c1.02-1.02,1.56-2.2,1.56-3.4c0-1.2-0.54-2.37-1.57-3.39l-2.81-2.8
	c-0.33-0.33-0.64-0.65-0.96-0.98c-0.62-0.64-1.27-1.3-1.92-1.89c-0.97-0.95-2.11-1.45-3.32-1.45c-1.2,0-2.35,0.5-3.35,1.47
	l-3.52,3.53c-1.28,1.28-2,2.84-2.15,4.64c-0.18,2.25,0.24,4.65,1.32,7.54C24.28,42.86,26.77,47.02,30.47,51.45L30.47,51.45z
	 M23.6,31.04c0.11-1.25,0.59-2.3,1.49-3.21l3.5-3.51c0.55-0.53,1.15-0.8,1.73-0.8c0.57,0,1.16,0.27,1.7,0.82
	c0.63,0.58,1.23,1.2,1.87,1.84c0.32,0.33,0.65,0.66,0.98,1l2.81,2.8c0.59,0.58,0.89,1.18,0.89,1.76c0,0.58-0.3,1.18-0.88,1.76
	c-0.29,0.29-0.58,0.59-0.88,0.89c-0.88,0.89-1.69,1.73-2.6,2.53l-0.05,0.05c-0.78,0.78-0.66,1.53-0.47,2.09
	c0.01,0.03,0.02,0.05,0.03,0.07c0.73,1.74,1.74,3.4,3.32,5.38c2.83,3.48,5.82,6.18,9.1,8.26c0.41,0.26,0.84,0.47,1.25,0.68
	c0.38,0.19,0.73,0.37,1.04,0.56c0.04,0.02,0.07,0.04,0.1,0.06c0.31,0.16,0.61,0.23,0.91,0.23c0.75,0,1.24-0.48,1.4-0.64l3.52-3.53
	c0.55-0.55,1.14-0.84,1.72-0.84c0.72,0,1.3,0.44,1.67,0.84l5.69,5.67c1.13,1.13,1.13,2.35-0.02,3.55c-0.4,0.42-0.81,0.83-1.25,1.26
	c-0.66,0.64-1.35,1.3-1.97,2.05c-1.08,1.17-2.37,1.72-4.04,1.72c-0.16,0-0.33-0.01-0.49-0.02c-3.09-0.19-5.97-1.4-8.13-2.42
	C41.69,59.11,36.54,55.1,32.26,50c-3.52-4.23-5.89-8.16-7.46-12.38C23.82,35.02,23.45,32.94,23.6,31.04L23.6,31.04z M23.6,31.04"/>
<g>
	<path d="M43.94,4.42c21.79,0,39.52,17.73,39.52,39.52S65.73,83.46,43.94,83.46S4.42,65.73,4.42,43.94S22.15,4.42,43.94,4.42
		 M43.94,1.42c-23.48,0-42.52,19.04-42.52,42.52c0,23.48,19.04,42.52,42.52,42.52c23.48,0,42.52-19.04,42.52-42.52
		C86.46,20.45,67.42,1.42,43.94,1.42L43.94,1.42z"/>
</g>
</svg>
